<svg xmlns="http://www.w3.org/2000/svg" width="960" height="470" viewBox="0 0 960 470" role="img" aria-labelledby="title desc">
  <title id="title">TypeFerence agent embedding</title><desc id="desc">A reusable Helio enterprise agent is embedded by person and repository agents, which are embedded by concrete agents.</desc>
  <defs><style>.box{fill:#f7f8fc;stroke:#4455aa;stroke-width:2}.org{fill:#e9ecff}.leaf{fill:#f1e9ff}.t{font:600 18px sans-serif;fill:#171a2b}.s{font:14px sans-serif;fill:#555b75}.line{stroke:#6e7390;stroke-width:2;fill:none}.label{font:13px sans-serif;fill:#6e7390}</style></defs>
  <path class="line" d="M480 100V145M480 145H245V205M480 145H715V205M245 275V340M715 275V340"/>
  <text class="label" x="500" y="132">embedded by</text>
  <rect class="box org" x="330" y="30" rx="12" width="300" height="70"/><text class="t" x="480" y="59" text-anchor="middle">helio/enterprise-agent</text><text class="s" x="480" y="82" text-anchor="middle">governance and shared norms</text>
  <rect class="box" x="105" y="205" rx="12" width="280" height="70"/><text class="t" x="245" y="234" text-anchor="middle">helio/person-agent</text><text class="s" x="245" y="257" text-anchor="middle">promotes enterprise behavior</text>
  <rect class="box" x="575" y="205" rx="12" width="280" height="70"/><text class="t" x="715" y="234" text-anchor="middle">helio/repo-agent</text><text class="s" x="715" y="257" text-anchor="middle">promotes enterprise behavior</text>
  <rect class="box leaf" x="105" y="340" rx="12" width="280" height="70"/><text class="t" x="245" y="369" text-anchor="middle">executive-assistant</text><text class="s" x="245" y="392" text-anchor="middle">structurally a correspondent</text>
  <rect class="box leaf" x="575" y="340" rx="12" width="280" height="70"/><text class="t" x="715" y="369" text-anchor="middle">payments-repo-agent</text><text class="s" x="715" y="392" text-anchor="middle">binds a compatible skill contract</text>
</svg>
